# Blender v2.79 (sub 0) OBJ File: 'hexagon blend.blend'
# www.blender.org
mtllib hexagon blend.mtl
o Cylinder
v 0.843510 -0.715826 -0.036368
v 0.843510 -0.715826 0.163632
v 1.709536 -0.215826 -0.036368
v 1.709536 -0.215826 0.163632
v 1.709536 0.784173 -0.036368
v 1.709536 0.784173 0.163632
v 0.843510 1.284173 -0.036368
v 0.843510 1.284173 0.163632
v -0.022515 0.784173 -0.036368
v -0.022515 0.784173 0.163632
v -0.022515 -0.215826 -0.036368
v -0.022515 -0.215826 0.163632
vn 0.5000 -0.8660 0.0000
vn 1.0000 0.0000 0.0000
vn 0.5000 0.8660 0.0000
vn -0.5000 0.8660 0.0000
vn 0.0000 0.0000 1.0000
vn -1.0000 0.0000 0.0000
vn -0.5000 -0.8660 0.0000
vn -0.0000 -0.0000 -1.0000
usemtl None
s off
f 1//1 3//1 4//1 2//1
f 3//2 5//2 6//2 4//2
f 5//3 7//3 8//3 6//3
f 7//4 9//4 10//4 8//4
f 4//5 6//5 8//5 10//5 12//5 2//5
f 9//6 11//6 12//6 10//6
f 11//7 1//7 2//7 12//7
f 1//8 11//8 9//8 7//8 5//8 3//8
